/* XPM */
static char *_eacac430d05410dc2b4e99342d563d40DK6IJDcepBv9ikL[] = {
/* columns rows colors chars-per-pixel */
"50 50 186 2 ",
"   c None",
".  c #1B0019",
"X  c #210014",
"o  c #27081F",
"O  c #2E081D",
"+  c #230A15",
"@  c #360817",
"#  c #350C1F",
"$  c #3C0E20",
"%  c #3F1124",
"&  c #47081C",
"*  c #4B141C",
"=  c #48241E",
"-  c #53271E",
";  c #441122",
":  c #4D1323",
">  c #4F1825",
",  c #4B1529",
"<  c #521624",
"1  c #5C1A26",
"2  c #5A1729",
"3  c #5D1A2A",
"4  c #6C1B25",
"5  c #741C30",
"6  c #6E232F",
"7  c #73222E",
"8  c #7A242C",
"9  c #7B292B",
"0  c #7B3927",
"q  c #742333",
"w  c #7B2433",
"e  c #7D2937",
"r  c #53473C",
"t  c #7F6041",
"y  c #972E2F",
"u  c #9A2B2F",
"i  c #9E3D2F",
"p  c #842634",
"a  c #8B2635",
"s  c #832834",
"d  c #8B2934",
"f  c #832A38",
"g  c #8A2B3B",
"h  c #952634",
"j  c #9A2634",
"k  c #952933",
"l  c #9A2A33",
"z  c #962738",
"x  c #982738",
"c  c #952A39",
"v  c #992B38",
"b  c #833133",
"n  c #953137",
"m  c #993237",
"M  c #9F3A3A",
"N  c #9E3934",
"B  c #A12A2E",
"V  c #AE2D2E",
"C  c #A6332E",
"Z  c #AD312F",
"A  c #B2342D",
"S  c #BC392E",
"D  c #A42C32",
"F  c #AA2E32",
"G  c #AB3233",
"H  c #B13433",
"J  c #B83737",
"K  c #B53938",
"L  c #C7382C",
"P  c #C23E30",
"I  c #C83D30",
"U  c #9D4A2B",
"Y  c #8E502F",
"T  c #895828",
"R  c #9E4F33",
"E  c #BC562C",
"W  c #AB4C3C",
"Q  c #A84937",
"!  c #AB5A37",
"~  c #B25B36",
"^  c #98642C",
"/  c #BF6B2F",
"(  c #AC633D",
")  c #A86639",
"_  c #B86538",
"`  c #B56C3A",
"'  c #B16434",
"]  c #B8773C",
"[  c #CC432F",
"{  c #D3422F",
"}  c #D94D2C",
"|  c #C94236",
" . c #C3413A",
".. c #CF483C",
"X. c #D04337",
"o. c #D84834",
"O. c #E94C2E",
"+. c #F24E2C",
"@. c #FB4E2C",
"#. c #E05028",
"$. c #E65E2E",
"%. c #ED582F",
"&. c #F95325",
"*. c #F5532D",
"=. c #FB532A",
"-. c #F55D2C",
";. c #F55C26",
":. c #E64E32",
">. c #EA5833",
",. c #F05431",
"<. c #C76D3D",
"1. c #D46030",
"2. c #C5763D",
"3. c #F66426",
"4. c #FB6027",
"5. c #F56428",
"6. c #F66B29",
"7. c #F3742B",
"8. c #F9742A",
"9. c #F8782B",
"0. c #F77B2D",
"q. c #E16C34",
"w. c #F26C31",
"e. c #F96830",
"r. c #F77D31",
"t. c #FB7E30",
"y. c #835B44",
"u. c #BF4242",
"i. c #BF5540",
"p. c #946A42",
"a. c #926850",
"s. c #897355",
"d. c #B76E41",
"f. c #A5774B",
"g. c #B67544",
"h. c #CA4440",
"j. c #E27D44",
"k. c #C18438",
"l. c #C6893A",
"z. c #D5843B",
"x. c #D48B3C",
"c. c #E9832D",
"v. c #F7862C",
"b. c #F8932F",
"n. c #F79D2D",
"m. c #F7982D",
"M. c #EC8836",
"N. c #F98433",
"B. c #FA8935",
"V. c #F48C32",
"C. c #F19330",
"Z. c #FA9D34",
"A. c #F9933E",
"S. c #F9AC2F",
"D. c #FCB42F",
"F. c #FDB92E",
"G. c #F7A431",
"H. c #FCA331",
"J. c #F7A937",
"K. c #FCAB33",
"L. c #F7A23F",
"P. c #FCA038",
"I. c #F1AF3A",
"U. c #FDB532",
"Y. c #FCBA31",
"T. c #FCC334",
"R. c #FECF3B",
"E. c #B58542",
"W. c #B98253",
"Q. c #CD894B",
"!. c #DA8A45",
"~. c #C99043",
"^. c #D69B4C",
"/. c #D89849",
"(. c #D79447",
"). c #C69356",
"_. c #D29451",
"`. c #E09F46",
"'. c #ED9F48",
"]. c #E39847",
"[. c #FB9C41",
"{. c #DAA54D",
"}. c #E3AC4A",
"|. c #F4A144",
" X c #E9B247",
".X c #FDBC42",
/* pixels */
"                                                                                                    ",
"                                                                                                    ",
"                                                                                                    ",
"                                                                                                    ",
"                                                                                                    ",
"                                                                                                    ",
"                                                                                                    ",
"                                                                                                    ",
"                                                                                                    ",
"                                                                                                    ",
"                                                                                                    ",
"                                                  r                                                 ",
"                                                  s.    % , ;                                       ",
"                                                  W.. > f a a 3                                     ",
"                                                  Q.& 8 x j h 8 #                                   ",
"                                            ; * 8 !.G | F x j s * +   T E.y.                        ",
"                          a.p.= o       < s l k k Q.u V j K | G f U z./.^                           ",
"                            ).l.0 : 1 3 s G X.H K ^.h c h h A | Q ].z.                              ",
"                              x./.R k h c y B v j (.| [ F v i Q W R                                 ",
"                              8 ` {.] y k l W l V '.-.=.>.<.(.` l p                                 ",
"                              9 v ! }.g.j C j.q.+.|.5.B.r.].! j h q                                 ",
"                              p Z  .N M F :.7.A.&.L.C.G.Z.#.j j h 4 $                               ",
"                              a H J l l o.5.A.0.3.G.D.U.b.} j j h.G 2 $                             ",
"                            $ 8 u j l C c.H.K.0.H.D.D.D.6.+.{ Z S ..g :                             ",
"                            : p h h l 1.K.n.D.D.F.T.T.U.v.B.B.M.<.~ v q                             ",
"                            p v v v F w.H.7.K.Y.T.T.R.D.U.Z.Z.N.} u j w                             ",
"                            f h H F Z *.N.4.Z.D.F.F.F.U.Z.;.V.r.o.h h 6                             ",
"                            7 k P o.Z *.=.;.C.U.D.D.U.U.8.=.e.%.H h h                               ",
"                              f D | _ !.>.C..XJ.K.K.B.9.3.4.=.L k h q                               ",
"                              1 d d.~.' 2.x.M.0.7.8.3.6.Z.7.O.H h q                                 ",
"                              - ( ) b W ~ G +.@.@.e.Z.J.I./ k x 5 @                                 ",
"                              y.  . 2 n k G +.&.*.+.$.E k.}.' h e O                                 ",
"                                    & d l l { :.L D D j y 2. X) s O                                 ",
"                                      7 l J H u h h k k c G ~ ^.` *                                 ",
"                                      < s G  .h.j p g s q e e Y ^.g.                                ",
"                                          w s a w                 f.                                ",
"                                                                                                    ",
"                                                                                                    ",
"                                                                                                    ",
"                                                                                                    ",
"                                                                                                    ",
"                                                                                                    ",
"                                                                                                    ",
"                                                                                                    ",
"                                                                                                    ",
"                                                                                                    ",
"                                                                                                    ",
"                                                                                                    ",
"                                                                                                    ",
"                                                                                                    "
};
