/* XPM */
static char *_6a4267d886945bcfeff4977c2e610ad8r8nrZv92WBKw6s4[] = {
/* columns rows colors chars-per-pixel */
"50 50 191 2 ",
"   c None",
".  c #3A2820",
"X  c #682A1F",
"o  c #4A1E2B",
"O  c #511421",
"+  c #531926",
"@  c #5C1C24",
"#  c #5B1D2C",
"$  c #631E2C",
"%  c #6C1F2B",
"&  c #651D30",
"*  c #6E1F30",
"=  c #5B212C",
"-  c #56212C",
";  c #4F3526",
":  c #513121",
">  c #553A21",
",  c #4A2231",
"<  c #5F2132",
"1  c #5E2438",
"2  c #592637",
"3  c #6D2225",
"4  c #64232C",
"5  c #6D222E",
"6  c #672929",
"7  c #732227",
"8  c #7F2627",
"9  c #792824",
"0  c #75242D",
"q  c #7B242D",
"w  c #792D27",
"e  c #623A26",
"r  c #6E3D2B",
"t  c #662433",
"y  c #6B2433",
"u  c #632935",
"i  c #6E253B",
"p  c #732433",
"a  c #7C2533",
"s  c #732A35",
"d  c #7C2A36",
"f  c #762638",
"g  c #7B263B",
"h  c #75283B",
"j  c #7D2A3B",
"k  c #6E3534",
"l  c #743933",
"z  c #564224",
"x  c #6E4827",
"c  c #634D27",
"v  c #704125",
"b  c #795F2E",
"n  c #745B3B",
"m  c #8B301E",
"M  c #81272B",
"N  c #8B252E",
"B  c #862D2F",
"V  c #8C2B23",
"C  c #91272F",
"Z  c #99272E",
"A  c #942E2D",
"S  c #9C2E2F",
"D  c #853A27",
"F  c #9B302E",
"G  c #94332D",
"H  c #832635",
"J  c #8C2734",
"K  c #842934",
"L  c #8B2A35",
"P  c #842639",
"I  c #8D2538",
"U  c #862A39",
"Y  c #8B2C38",
"T  c #962736",
"R  c #982635",
"E  c #942A35",
"W  c #992B33",
"Q  c #962738",
"!  c #922B39",
"~  c #9F3030",
"^  c #9B3930",
"/  c #943632",
"(  c #AC352F",
")  c #B9372D",
"_  c #B1382D",
"`  c #BC3C2D",
"'  c #B5372C",
"]  c #A13433",
"[  c #A63D34",
"{  c #AF3334",
"}  c #B03634",
"|  c #B83630",
" . c #B23E36",
".. c #C73F2D",
"X. c #C83F2F",
"o. c #C73E33",
"O. c #C83D32",
"+. c #92412C",
"@. c #924725",
"#. c #8D4632",
"$. c #814B35",
"%. c #944932",
"&. c #82553D",
"*. c #A24429",
"=. c #B1412A",
"-. c #BA542B",
";. c #B74135",
":. c #BF4830",
">. c #B05E34",
",. c #8D6328",
"<. c #9E6E35",
"1. c #9D7737",
"2. c #BE662C",
"3. c #AD6E3B",
"4. c #A2713E",
"5. c #B0763E",
"6. c #C9492E",
"7. c #C04C2B",
"8. c #D44B2B",
"9. c #C7592C",
"0. c #C35527",
"q. c #D0582F",
"w. c #C24432",
"e. c #CD4434",
"r. c #C74A32",
"t. c #CD4B36",
"y. c #D24433",
"u. c #D94631",
"i. c #D44C39",
"p. c #C25D33",
"a. c #C95834",
"s. c #C7593B",
"d. c #CB5D3A",
"f. c #DC5239",
"g. c #E94F2B",
"h. c #E85924",
"j. c #F3572B",
"k. c #F35B33",
"l. c #DC772F",
"z. c #DC6036",
"x. c #D87537",
"c. c #EC6E2D",
"v. c #F36A2C",
"b. c #EC732F",
"n. c #F27D2D",
"m. c #E96B38",
"M. c #E66C33",
"N. c #F36C30",
"B. c #EE7F3C",
"V. c #ED7B35",
"C. c #D27544",
"Z. c #A48539",
"A. c #AE843E",
"S. c #C08539",
"D. c #DC8C3D",
"F. c #D28139",
"G. c #C79A3B",
"H. c #DA903F",
"J. c #F89A2E",
"K. c #E5883C",
"L. c #F48231",
"P. c #F08438",
"I. c #E3983E",
"U. c #E59B36",
"Y. c #F69B32",
"T. c #F89E33",
"R. c #F8933F",
"E. c #F89C38",
"W. c #F39A3D",
"Q. c #D6B13D",
"!. c #EAA23E",
"~. c #F7A935",
"^. c #F4A03F",
"/. c #FAA932",
"(. c #F5BF3A",
"). c #AD9043",
"_. c #BC9845",
"`. c #C08E42",
"'. c #CE8843",
"]. c #DC8641",
"[. c #DC914B",
"{. c #D79C4A",
"}. c #E08840",
"|. c #E39844",
" X c #CDAA45",
".X c #D8AC48",
"XX c #D5B443",
"oX c #E6AA40",
"OX c #E5AD48",
"+X c #F4A045",
"@X c #F1BA48",
/* pixels */
"                                                                                                    ",
"                                                                                                    ",
"                                                                                                    ",
"                                                                                                    ",
"                                                                                                    ",
"                                                                                                    ",
"                                                                                                    ",
"                                                                                                    ",
"                                                            $ h                                     ",
"                                                      = d ! J L                                     ",
"                            y j p                 y Y S w...o.W p                                   ",
"                          j y y d -                 & ] V.T.L.w.                                    ",
"                        K L @                         @ <.XXOX3.                                    ",
"                      + a E E K y   t s g #     Y E E ! Y k :                                       ",
"                    t U W w.x.#.O 0 Y Q E % 5 q } ) e.u.O.W                                         ",
"                    # 5 w C.{.r J Q R Z ) y.w.-.b.v.j.R.N.O.0                                       ",
"                          6 J ] w.w.` w.k.j.-.`..X!.x.).+Xg.W d a 5                                 ",
"                          L F l.Y.~.+XT./.!.e . z c > > }.h.) W Q p i                               ",
"                        4 p 7.E.(.Q.,..X X_.n           X D.P.8.} 3 u                               ",
"                f 0     s s f.K.G.                        Z.{.9.m.V                                 ",
"              p ! K     =   7 $.                            &.x ].G   D 9                           ",
"              t 5                                             > F./   [.0.* Y u                     ",
"                        +                                     z '.+.  4.s.$ 5                       ",
"                      y y a                                     %.w   = q                           ",
"                    y a 7 [                                     <                                   ",
"                    * I A f.D +.                                                                    ",
"                      N 6.N.K.[.                                     .[                             ",
"                      C V.J.c.W.A.                                1.z.) 4                           ",
"            y U 0 y   M M.U.*.2.5.                                @XN.} @                           ",
"            p ! L 5     ;.a.  w v                               A.n.u.q                             ",
"              P P <           r.].).                            d.=.    t                           ",
"                              _ n.oX                      l p.=.i.M     o                           ",
"                              N y.q.@.                    b I.i.m                                   ",
"                                L q q t.K._.          # 6 3.D.B                                     ",
"                                p ! E O.k.B.+.      y L t.i.^                                       ",
"                        y         y I E ( W 3       h q A M                                         ",
"                        t                                       -                                   ",
"                                                            y K g                                   ",
"                            j s                           u U Y s                                   ",
"                            I ! p     , 1                                                           ",
"                            j p y                                                                   ",
"                                                                                                    ",
"                                                                                                    ",
"                                                                                                    ",
"                                                                                                    ",
"                                                                                                    ",
"                                                                                                    ",
"                                                                                                    ",
"                                                                                                    ",
"                                                                                                    "
};
