/* XPM */
static char *_65bb03fc532434cac64983b2a73c763LvIJ3UU02mqY5ZMm[] = {
/* columns rows colors chars-per-pixel */
"50 50 152 2 ",
"   c None",
".  c #6B201F",
"X  c #4A1421",
"o  c #4E1525",
"O  c #571925",
"+  c #5A1B20",
"@  c #511728",
"#  c #56192B",
"$  c #5F1B29",
"%  c #641B29",
"&  c #601E2A",
"*  c #631F2F",
"=  c #691F2C",
"-  c #6F1F2D",
";  c #681F33",
":  c #6E1E30",
">  c #6F1E31",
",  c #66242E",
"<  c #692928",
"1  c #78262F",
"2  c #71282B",
"3  c #742533",
"4  c #7A2535",
"5  c #7B614D",
"6  c #7B6C72",
"7  c #922D2E",
"8  c #952E2F",
"9  c #8C342A",
"0  c #97352C",
"q  c #812634",
"w  c #892735",
"e  c #802835",
"r  c #802A37",
"t  c #862936",
"y  c #862A37",
"u  c #8C2930",
"i  c #882836",
"p  c #8F2837",
"a  c #892639",
"s  c #8E2939",
"d  c #892A3D",
"f  c #962731",
"g  c #962736",
"h  c #992633",
"j  c #992733",
"k  c #932932",
"l  c #972833",
"z  c #952D31",
"x  c #962D33",
"c  c #922934",
"v  c #952934",
"b  c #942935",
"n  c #952935",
"m  c #942A35",
"M  c #942936",
"N  c #942837",
"B  c #962936",
"V  c #972837",
"C  c #972937",
"Z  c #952A36",
"A  c #9A2831",
"S  c #982932",
"D  c #9A2833",
"F  c #9E2A31",
"G  c #992934",
"H  c #982A34",
"J  c #9A2A34",
"K  c #982836",
"L  c #982B36",
"P  c #9D2A34",
"I  c #9D2837",
"U  c #912A39",
"Y  c #952939",
"T  c #933132",
"R  c #9D3233",
"E  c #9E3433",
"W  c #9C3434",
"Q  c #A22F2B",
"!  c #A92F2D",
"~  c #A8372A",
"^  c #A32B30",
"/  c #A02C30",
"(  c #A12C30",
")  c #A02F30",
"_  c #A12C35",
"`  c #A42E36",
"'  c #A93833",
"]  c #AE3931",
"[  c #AA3D35",
"{  c #AD3D36",
"}  c #B33731",
"|  c #BA3A33",
" . c #C43930",
".. c #C03C36",
"X. c #C4393A",
"o. c #924D1F",
"O. c #A1532A",
"+. c #A34730",
"@. c #A84037",
"#. c #AA4D36",
"$. c #A55232",
"%. c #AA5832",
"&. c #B25B3F",
"*. c #9A662C",
"=. c #A4672E",
"-. c #BA7A38",
";. c #CA4631",
":. c #CC4736",
">. c #CC4439",
",. c #D54633",
"<. c #D74831",
"1. c #C55D34",
"2. c #CB5D31",
"3. c #CF5B39",
"4. c #D65F32",
"5. c #EE5A27",
"6. c #EA502D",
"7. c #F34E30",
"8. c #E95532",
"9. c #CA6535",
"0. c #C46F35",
"q. c #D26E3A",
"w. c #C0783F",
"e. c #D2753A",
"r. c #F0622D",
"t. c #F37127",
"y. c #ED6733",
"u. c #EE7031",
"i. c #F67032",
"p. c #957A54",
"a. c #BE6B42",
"s. c #B77046",
"d. c #ED7842",
"f. c #C5803A",
"g. c #D8823A",
"h. c #D8803F",
"j. c #DB9D3F",
"k. c #F58A2E",
"l. c #EC8A3C",
"z. c #F98C34",
"x. c #EF9F3D",
"c. c #E3A03F",
"v. c #F9A137",
"b. c #CA8342",
"n. c #C98445",
"m. c #C8834A",
"M. c #D08243",
"N. c #C1934C",
"B. c #DAA647",
"V. c #E7A242",
"C. c #EAA945",
"Z. c #E9B04E",
/* pixels */
"                                                                                                    ",
"                                                                                                    ",
"                                                                                                    ",
"                                                                                                    ",
"                                                                                                    ",
"                                                                                                    ",
"                                                                                                    ",
"                                                                                                    ",
"                                                                                                    ",
"                                                                                                    ",
"                                                                                                    ",
"                                                                                                    ",
"                                                                                                    ",
"                                                                                                    ",
"                                                                                                    ",
"                                                                                                    ",
"                                                                  6                                 ",
"                                                                                                    ",
"                                                ; a s 4 ,   *.N.                                    ",
"                                    p.        = U K D D 0 -.V.=.                                    ",
"                                      B.j.%.+ w M L K D s.Z.0.                                      ",
"                                      o.c.M.T c ) 3.9.) z 0 2                                       ",
"                                        9 W M l Q e.e.| I M 3 +                                     ",
"                                        - M K D | 8.r.y.1.$.R y o                                   ",
"                                        $ c ) ..;.i.k.v.l.d.{ M 3                                   ",
"                                        X u ^ >.] i.t.z.5.7.~ M q                                   ",
"                                          #.' W m.4.6.,. .X.h D e                                   ",
"                                          b.@.a.e.~ _ F &.+.M i %                                   ",
"                                          < x [ ,.:._ j w.C.2..                                     ",
"                                          # d Y M P D M z g.x.O.                                    ",
"                                            @ 4 c g l t ,   w.b.                                    ",
"                                                * > >           5                                   ",
"                                                                                                    ",
"                                                                                                    ",
"                                                                                                    ",
"                                                                                                    ",
"                                                                                                    ",
"                                                                                                    ",
"                                                                                                    ",
"                                                                                                    ",
"                                                                                                    ",
"                                                                                                    ",
"                                                                                                    ",
"                                                                                                    ",
"                                                                                                    ",
"                                                                                                    ",
"                                                                                                    ",
"                                                                                                    ",
"                                                                                                    ",
"                                                                                                    "
};
