/* XPM */
static char *_878f45fa46e4128e852982c0824c6f3GsrWqOrxREhgvqlj[] = {
/* columns rows colors chars-per-pixel */
"50 50 224 2 ",
"   c None",
".  c #260B1D",
"X  c #2B0A1D",
"o  c #330C1C",
"O  c #3B0D1D",
"+  c #3E131D",
"@  c #35101E",
"#  c #2C0A21",
"$  c #270B22",
"%  c #350D20",
"&  c #3A0E20",
"*  c #2F1923",
"=  c #311420",
"-  c #3C1122",
";  c #3F1629",
":  c #440E1E",
">  c #44121C",
",  c #49161A",
"<  c #531B1E",
"1  c #57191D",
"2  c #5A201D",
"3  c #6C221D",
"4  c #61281E",
"5  c #431223",
"6  c #4C1423",
"7  c #4B1728",
"8  c #521623",
"9  c #541926",
"0  c #5C1924",
"q  c #571728",
"w  c #5E1B2A",
"e  c #581729",
"r  c #450F23",
"t  c #621D25",
"y  c #641B2B",
"u  c #6B1E2C",
"i  c #681C21",
"p  c #761F2C",
"a  c #671E31",
"s  c #741F30",
"d  c #6C212C",
"f  c #692126",
"g  c #74232C",
"h  c #7B232D",
"j  c #762824",
"k  c #6D2333",
"l  c #622030",
"z  c #742433",
"x  c #7C2432",
"c  c #752933",
"v  c #78322E",
"b  c #6E4F32",
"n  c #703D42",
"m  c #715D4F",
"M  c #8A2A2E",
"N  c #86282C",
"B  c #99292F",
"V  c #893029",
"C  c #85362A",
"Z  c #99342B",
"A  c #9B3C2C",
"S  c #96362B",
"D  c #832533",
"F  c #8C2635",
"G  c #842834",
"H  c #8D2934",
"J  c #86263A",
"K  c #8E293A",
"L  c #8A273B",
"P  c #932634",
"I  c #9B2734",
"U  c #952934",
"Y  c #9B2A33",
"T  c #932939",
"R  c #972839",
"E  c #943333",
"W  c #9B3C32",
"Q  c #9C3133",
"!  c #A82D2E",
"~  c #A2322D",
"^  c #A8352B",
"/  c #B6342E",
"(  c #A32D32",
")  c #AA2E33",
"_  c #AD3332",
"`  c #A23D32",
"'  c #A93A33",
"]  c #B33533",
"[  c #BC3A33",
"{  c #B83935",
"}  c #C53C2C",
"|  c #C53D34",
" . c #98412B",
".. c #82423A",
"X. c #9D4736",
"o. c #8E5137",
"O. c #B6432B",
"+. c #A34333",
"@. c #B34433",
"#. c #BB4433",
"$. c #B34A33",
"%. c #B54A39",
"&. c #A85834",
"*. c #B35D35",
"=. c #B25738",
"-. c #AA502E",
";. c #B86939",
":. c #A17331",
">. c #BB7136",
",. c #D6462D",
"<. c #DB552D",
"1. c #C44234",
"2. c #CC4333",
"3. c #C34C34",
"4. c #CD4A33",
"5. c #C3413A",
"6. c #D34B34",
"7. c #D94833",
"8. c #C85237",
"9. c #DA5134",
"0. c #D2543A",
"q. c #C6522E",
"w. c #EB4F2F",
"e. c #E24B2F",
"r. c #F34F2D",
"t. c #EF532F",
"y. c #F5542C",
"u. c #FC542B",
"i. c #F45E2A",
"p. c #FB592A",
"a. c #FA5627",
"s. c #E54C34",
"d. c #EB4D32",
"f. c #EC5533",
"g. c #F45231",
"h. c #FB5231",
"j. c #F75833",
"k. c #C76933",
"l. c #DD6230",
"z. c #CA7D3B",
"x. c #D87B35",
"c. c #F86429",
"v. c #FA6B29",
"b. c #F76529",
"n. c #EB722D",
"m. c #F47D2E",
"M. c #F9782D",
"N. c #F36632",
"B. c #E97C36",
"V. c #F77932",
"C. c #9E4C41",
"Z. c #957052",
"A. c #A46246",
"S. c #D67F40",
"D. c #CC774A",
"F. c #C38932",
"G. c #D98838",
"H. c #DE953B",
"J. c #F78B2E",
"K. c #F9872C",
"L. c #F0932E",
"P. c #F88533",
"I. c #E69637",
"U. c #FA9C31",
"Y. c #F59638",
"T. c #E58B3C",
"R. c #FCB72E",
"E. c #E8A43D",
"W. c #FAA232",
"Q. c #FAAD33",
"!. c #FAAD3C",
"~. c #F6A837",
"^. c #E7B338",
"/. c #FBB233",
"(. c #FABC33",
"). c #F7B73D",
"_. c #F6BB39",
"`. c #F9A22F",
"'. c #FBC234",
"]. c #FBCA36",
"[. c #FBC43B",
"{. c #FACC39",
"}. c #FDD33B",
"|. c #FDDA3C",
" X c #FCD235",
".X c #9A8052",
"XX c #C98748",
"oX c #D59E42",
"OX c #DF9140",
"+X c #DB8D44",
"@X c #E5AC47",
"#X c #F4A843",
"$X c #E7B143",
"%X c #F6BC45",
"&X c #FAC243",
"*X c #F8C944",
"=X c #FCDA43",
"-X c #FBDA4B",
";X c #FBD548",
":X c #FBDC54",
">X c #F9C350",
",X c #F8E05D",
"<X c #F9DE67",
"1X c #F7CF6F",
"2X c #FAE165",
"3X c #F9E372",
"4X c #F9E37C",
"5X c #F6DA9A",
"6X c #FBE582",
"7X c #FAE58D",
"8X c #F7E68D",
"9X c #FCE594",
"0X c #F9E99A",
"qX c #FADDA3",
"wX c #FBEAA2",
"eX c #FBEBAB",
"rX c #F8EBA8",
"tX c #FAEBB4",
"yX c #FBF1B9",
"uX c #FCF0C4",
"iX c #FBF3CC",
"pX c #FAF4D3",
"aX c #FCF5DC",
"sX c #FBF6E1",
/* pixels */
"                                                                                                    ",
"                                                                                                    ",
"                                                                                                    ",
"                                                                                                    ",
"                                                  X.                                                ",
"                                                C $.                                                ",
"                                                ;.D.                                                ",
"                                                8.x.                                                ",
"                                                8.l.> . . X # # X .                                 ",
"                                                O.4.+ X @ 6 t d y 8 o .                             ",
"                                              $ 3 $.O u J K T T U H g o                             ",
"                                $ $           . @ v c T U I ( U U P U t #                           ",
"                              5 7 5 #     k k 7 7 J U I [ s.s.} U U U h %                           ",
"              Z.            k T Y Q s z L T x O : P U ) w.a.u.u.| I U D -           Z.              ",
"                ;.=.      d T _ 7.d.2._ I T F 9 8 T U [ B.K.c.u.d._ U D %       =.;.                ",
"                4 3.3.f D Y / w.a.u.u.g.s.| I x w Y ] [ =.%X!.c.g.{ U g # # 3 #.8.                  ",
"                  j 4.#.( s.r.v.J.K.K.P.M.N.) F q I s.w.7.x.%XM.w._ K q , Z 9.6.                    ",
"                    w T ] h.v.U.`.'. X*X).T.Q T M / g.u.u.a.M.c.2.I g j 6.y.4.                      ",
"                    o y ( y.Y.L.l.G.oX&.+.+.I Y 9.v.M.v.p.u.u.} B T Z f.u.2.1 #                     ",
"                    X 5 J %.x.` U F B N G F Y %.Y.Q.!.!.U.v.d.~ 0 M } y.O.1 . . X #                 ",
"                    N ' ;.+.+.U ^ 0 t 6 y K ' B.%X1XtXqX>X!.b.] c 6.4.V O X X o # X X               ",
"                  E s.v.#X>.N j 3.` p h E z.@X_.;X3XtXiX9X}.J.} Q C > e q w u p a 7 X X             ",
"                  U t.M._.oXF a , M B S XX5XrX-X<X6X:X4X6X;XY.@.g 9 % y H S O.6._ J 5 X             ",
"                  u 2.i.Y.;.u & X g >.I.1X9XrX4XuXtX3X0X9X;X(.G.9.| x D  .E.W.b.s.Y u = b Z.        ",
"                  & g ~ A 0 X X w U T.(.3X2XwXpXaXiX8X0XtX8X-X'.K.w.Y U +._.(.B.r.~ s =             ",
"                  . X X X X X o x C H.*XrX3X6XtXuXaXwX<XyXeX2X(.V.e.I P -.*X/.G.5.( u X             ",
"                o t c d + X . > G 8 F.*XtXwX:X:X6XpXtX9XpX0X;XQ.i.} h u X.H.#X*.I F 5 X             ",
"              + x { d.#.H s O y D ; :.[.7XrX:X|.:XrXuXuXeX4X|.`.u./ O o s U  .I N 8 X               ",
"              d ( d.i.T.&.R D J H w b ^.-X3X<X|.=X2X8X3X4X6X].J.w.P O q C @.[ R y X                 ",
"              D ! r.M.(.F.T I x h T M I.{.-X3X:X|.|.|.|.2X:X~.i.^ 8 x P G.Y.j.| D o                 ",
"              K ! w.K.'.@XZ U p O g N z.'.].-X:X=X|.|.-X-X XU.f.P O w P @X~.a.2.F :                 ",
"              G B ,.P.Q.&X=.I N o o : V G.).@X^.|.|. X].{.Q.m.6.F & u U k.V.y./ U w                 ",
"              g U _ <.n.G.` I K 0 j O.#.D *.&.E.}.}.[./.I.L.m._ d o l z ( [ ] I T y                 ",
"                z T Y _ Y T F H ' w.6.1 o 6 i >.Q.(.E.G.x.k.#.H O X o o u K T K g                   ",
"                  k J J D 1 3 1.2.1.i : + o o v +XI...2 G x U H 6 5 o X o 6 9 5                     ",
"                          S 9.2.B F P F J g 8 O d j O X o = f U L V C w o X X                       ",
"                        $.0.V , H ^ ;.X.` T K c - o . X X = q F +.@Xx.T y $                         ",
"                      %.$.2 . y _ f.W.!.^.XXT x 7       ; k F W oX&Xn.] J %                         ",
"                  ..C.    * o h [ a.W.R.}.$XW P e       - e H =.#XK.a.[ H <                         ",
"                n ..    m * O K ] y.K./.{.*X&.D             G @.9.r.9.( U V                         ",
"                      .X    5 L ( d.c.U.!.#X;.x             k K B ] ( U Y 0. .                      ",
"                              L T 2.r.a.<.^ U x               z F K K D   X.8.&.                    ",
"                              u T I ] [ ' U D                                 A.Z.                  ",
"                                d D F T F D                                                         ",
"                                                                                                    ",
"                                                                                                    ",
"                                                                                                    ",
"                                                                                                    ",
"                                                                                                    ",
"                                                                                                    "
};
