/* XPM */
static char *_8a32376d48a4165fe3753ad743b8f58Of5Vv18LFzpohsoW[] = {
/* columns rows colors chars-per-pixel */
"50 50 200 2 ",
"   c None",
".  c #2C0A1C",
"X  c #260A1E",
"o  c #330B1C",
"O  c #3B0D1D",
"+  c #3F251D",
"@  c #5D1D1B",
"#  c #67291B",
"$  c #471223",
"%  c #4D1324",
"&  c #551423",
"*  c #5D1B27",
"=  c #5A1929",
"-  c #571725",
";  c #5E1F33",
":  c #691C2B",
">  c #651D29",
",  c #671F31",
"<  c #6E1F36",
"1  c #5A2027",
"2  c #55292E",
"3  c #593030",
"4  c #6B222C",
"5  c #63212B",
"6  c #75232D",
"7  c #7C212D",
"8  c #673021",
"9  c #6A3B2C",
"0  c #7C3626",
"q  c #6A2132",
"w  c #722432",
"e  c #7F2433",
"r  c #722A35",
"t  c #7A2933",
"y  c #653933",
"u  c #6A4140",
"i  c #7E5942",
"p  c #776C68",
"a  c #842E2A",
"s  c #992A2E",
"d  c #94362C",
"f  c #832534",
"g  c #8B2735",
"h  c #832935",
"j  c #8E2935",
"k  c #862638",
"l  c #8B2A3A",
"z  c #8E2639",
"x  c #952634",
"c  c #9A2734",
"v  c #942934",
"b  c #9A2A33",
"n  c #952638",
"m  c #942A39",
"M  c #9C2938",
"N  c #9B3932",
"B  c #9A3435",
"V  c #A62C2D",
"C  c #A7362E",
"Z  c #B8392D",
"A  c #A42D33",
"S  c #A33A33",
"D  c #AD3835",
"F  c #A53236",
"G  c #B23532",
"H  c #B93530",
"J  c #B53933",
"K  c #BB3932",
"L  c #CC3D2D",
"P  c #C63C2D",
"I  c #C23C33",
"U  c #C73F38",
"Y  c #83422E",
"T  c #9E432E",
"R  c #8D5228",
"E  c #93552F",
"W  c #804A34",
"Q  c #9B4435",
"!  c #895C3C",
"~  c #AF422D",
"^  c #B1402F",
"/  c #B44D2D",
"(  c #A85F2B",
")  c #B55E2C",
"_  c #A54435",
"`  c #AB4F39",
"'  c #A84A36",
"]  c #BC4436",
"[  c #B64732",
"{  c #AB5438",
"}  c #B35038",
"|  c #B75736",
" . c #B2602F",
".. c #B76C36",
"X. c #A87039",
"o. c #C5412F",
"O. c #D5492F",
"+. c #D15029",
"@. c #DE502D",
"#. c #C94333",
"$. c #C74734",
"%. c #D34533",
"&. c #DB4732",
"*. c #DD4930",
"=. c #D74A38",
"-. c #C65535",
";. c #D85433",
":. c #E64B2B",
">. c #F5532D",
",. c #FA542C",
"<. c #FA592C",
"1. c #F65727",
"2. c #E44B34",
"3. c #EA4D36",
"4. c #EB5333",
"5. c #E65636",
"6. c #F55D31",
"7. c #C1612F",
"8. c #CE782F",
"9. c #C46F35",
"0. c #CB6C34",
"q. c #C56735",
"w. c #D96B34",
"e. c #CA743E",
"r. c #D47A33",
"t. c #DA7038",
"y. c #D47E3B",
"u. c #D87838",
"i. c #F76027",
"p. c #F7672B",
"a. c #F66A2C",
"s. c #F86C2B",
"d. c #FA602B",
"f. c #F5742D",
"g. c #F8792A",
"h. c #F9752D",
"j. c #E66033",
"k. c #F16734",
"l. c #F16C32",
"z. c #EC7336",
"x. c #E37B3A",
"c. c #F17838",
"v. c #9D5640",
"b. c #A65845",
"n. c #896645",
"m. c #906E40",
"M. c #9A7349",
"N. c #8E6F52",
"B. c #A7684B",
"V. c #B76540",
"C. c #B76B45",
"Z. c #B76049",
"A. c #BD6843",
"S. c #A67943",
"D. c #B9724D",
"F. c #8D7775",
"G. c #C4734F",
"H. c #E17443",
"J. c #D1823A",
"K. c #D58634",
"L. c #D4963F",
"P. c #F2842D",
"I. c #F8822F",
"U. c #F8902B",
"Y. c #E58830",
"T. c #EB883C",
"R. c #E7843A",
"E. c #F58334",
"W. c #F98933",
"Q. c #E79737",
"!. c #FA9C34",
"~. c #F09739",
"^. c #FEAF2F",
"/. c #FEB62E",
"(. c #FCB92D",
"). c #EFA83E",
"_. c #ECA138",
"`. c #FCA335",
"'. c #FCAC34",
"]. c #F5A738",
"[. c #FDB532",
"{. c #FCBC30",
"}. c #FDB13B",
"|. c #F9C12E",
" X c #F7C733",
".X c #FCC433",
"XX c #FCCB36",
"oX c #FDCE3A",
"OX c #FDD43B",
"+X c #FED93D",
"@X c #FDD037",
"#X c #B99442",
"$X c #BA8C50",
"%X c #CE8344",
"&X c #C58141",
"*X c #D88A4A",
"=X c #D3924B",
"-X c #EC9A45",
";X c #CFA752",
":X c #FFD740",
/* pixels */
"                                                                                                    ",
"                                                                                                    ",
"                                                                                                    ",
"                                                                                                    ",
"                                                                                                    ",
"                                                                                                    ",
"                                                                                                    ",
"                                                                                                    ",
"                                                                                                    ",
"                                                  2                                                 ",
"                                                  i                                                 ",
"                                                  M.                                                ",
"                                                  S.  o - , q                                       ",
"              F.                                  X.1 t j m m k =                 p                 ",
"                                                E ..m b F b x x e             n.3                   ",
"                    i W                 o O % - a | c A =.=.G x n -       #X;Xm.                    ",
"                      D.J.(   $ 4 4 * O = f m m B _ m { 8.f.3.V x * # ..L.L.                        ",
"                         .x.| k m x v e j x x x v ^ =.j.P.!.p.I s ~ u.T.0.                          ",
"                          _ V.` o.3.5.P H J A x v b ^ @.,.g.a.I J z.z.[                             ",
"                          e v -.k.f.W.1.2.Z A | J.K.Q.Q.f.,.4.V ] 5.Z                               ",
"                          h b #.%.R.g.p.P.0. .].(.[.[.[.`.<.P v B a O                               ",
"                          h s G A H.f.'./.}.]./.(.(.[.[.'.I.2.b 4 . . o .                           ",
"                          f b v s 5.`./././..X@X.X(./././.'.f.K 6 O > f h r                         ",
"                            h v b @.~./././.XX+XXX.XXX{./.[.P.#.x 7 m x x x h                       ",
"                            - g x C  .}.[.[.oXOX+X+X+X@X(.(.'.[ x s d ` D.G.b.                      ",
"                          $ f v m $.a.[.(..XOXOX+X+X+X@X(.(.}.{ Z.*X-XH._ m v                       ",
"                          q v b S c.a.}.(..X:X XOXOX X.X/._.y._ B Q.`.6.I v n                       ",
"                          f x b ;.!.1.!.(.[..X|.oXOX|.(.}.9.D x s ].!.<.I m h                       ",
"                          g m c #.c.6.z.'././.(.oXOX.X/./.T.%.c } -Xr.U b m 5                       ",
"                          k x v c D [ -.Y.[././.[.(.(./.[.E.2.b S T B v v w                         ",
"                          q k x B ..A.b y.[././.(.(././.!.d.*.c l % = q ;                           ",
"                              Y y.u.d C.w.U.'././.[.U.g.d.4.Z x : o X                               ",
"                              -./ # M.b.Z Z +.g.`.`.l.&.o.0.e.c f O .                               ",
"                          B.`   + N.v.M %.O.L ,.<.<.2.A 9.).%XN m $                                 ",
"                        u 9     p y v c #.,.>.:.4.2.G A.-XJ.T G.' @                                 ",
"                                    z m D %.&.H b x n s x x n Q %Xq.@                               ",
"                                    k n v s c x 6 f l t > r r 4 R =X..                              ",
"                                      h j m x t                     $X!                             ",
"                                                                                                    ",
"                                                                                                    ",
"                                                                                                    ",
"                                                                                                    ",
"                                                                                                    ",
"                                                                                                    ",
"                                                                                                    ",
"                                                                                                    ",
"                                                                                                    ",
"                                                                                                    ",
"                                                                                                    ",
"                                                                                                    "
};
