/* XPM */
static char *_cf1407ee4b14ebaa5a2adf5474a901052hKVcQfcF0RtFla[] = {
/* columns rows colors chars-per-pixel */
"50 50 196 2 ",
"   c None",
".  c #200019",
"X  c #27091B",
"o  c #2A0B1D",
"O  c #2C0815",
"+  c #330B1C",
"@  c #3D0C1E",
"#  c #340A17",
"$  c #33141F",
"%  c #2B0921",
"&  c #250A21",
"*  c #3B0D22",
"=  c #3F1823",
"-  c #3E1323",
";  c #43141C",
":  c #591A1E",
">  c #440F24",
",  c #4C1223",
"<  c #4C1C29",
"1  c #551726",
"2  c #541A24",
"3  c #5C1A24",
"4  c #561D2B",
"5  c #5A1B2A",
"6  c #601724",
"7  c #631B25",
"8  c #671C28",
"9  c #6A1C2E",
"0  c #6C1F26",
"q  c #7B1F2C",
"w  c #741F33",
"e  c #492521",
"r  c #572328",
"t  c #4C3327",
"y  c #562432",
"u  c #6F2127",
"i  c #6F2E24",
"p  c #64222D",
"a  c #6B222C",
"s  c #6A2C26",
"d  c #7A2626",
"f  c #73222D",
"g  c #7B242F",
"h  c #7B2A2C",
"j  c #603723",
"k  c #653D23",
"l  c #7B3A2D",
"z  c #652434",
"x  c #6C2433",
"c  c #6E2836",
"v  c #64273B",
"b  c #732433",
"n  c #7B2533",
"m  c #732836",
"M  c #7C2A33",
"N  c #7A263D",
"B  c #703031",
"V  c #62452A",
"C  c #7E452D",
"Z  c #6C5127",
"A  c #84262C",
"S  c #8D252F",
"D  c #83292D",
"F  c #8C2B2E",
"G  c #842A24",
"H  c #94292E",
"J  c #9B2E2D",
"K  c #8E302B",
"L  c #833829",
"P  c #9F312B",
"I  c #93362F",
"U  c #832534",
"Y  c #8A2633",
"T  c #832933",
"R  c #8C2A34",
"E  c #882638",
"W  c #862A3A",
"Q  c #8C2B3B",
"!  c #922735",
"~  c #982733",
"^  c #942B34",
"/  c #9A2B34",
"(  c #942938",
")  c #933532",
"_  c #9C3133",
"`  c #9D3B36",
"'  c #A72E2F",
"]  c #A6342C",
"[  c #AB372F",
"{  c #A23E2E",
"}  c #B7362F",
"|  c #BE3B2D",
" . c #AD2F30",
".. c #A33233",
"X. c #AB3432",
"o. c #B43432",
"O. c #B93633",
"+. c #B43D34",
"@. c #BC3B34",
"#. c #C13C2D",
"$. c #C43C32",
"%. c #854228",
"&. c #8B442D",
"*. c #91532C",
"=. c #924E31",
"-. c #985034",
";. c #B0522E",
":. c #B64932",
">. c #BE4938",
",. c #BE4332",
"<. c #A15735",
"1. c #AD5737",
"2. c #AA5B3A",
"3. c #B85436",
"4. c #8A622C",
"5. c #AA6B30",
"6. c #B76F30",
"7. c #AF7735",
"8. c #A17B38",
"9. c #B67F3E",
"0. c #BA7C38",
"q. c #CB412D",
"w. c #D1472F",
"e. c #DE4C2A",
"r. c #CC4334",
"t. c #CE4C36",
"y. c #C2403E",
"u. c #C34B36",
"i. c #D44332",
"p. c #D24B32",
"a. c #DC4A33",
"s. c #D94A39",
"d. c #C45436",
"f. c #CB5634",
"g. c #D45233",
"h. c #DB5835",
"j. c #E34F2E",
"k. c #E6542F",
"l. c #F9572D",
"z. c #E24E3A",
"x. c #E35434",
"c. c #E85F35",
"v. c #E15438",
"b. c #EA5B39",
"n. c #F75330",
"m. c #F15C33",
"M. c #C96230",
"N. c #C46C38",
"B. c #D96032",
"V. c #D66D32",
"C. c #D06039",
"Z. c #D16433",
"A. c #CD7636",
"S. c #EF6F29",
"D. c #F5622E",
"F. c #FB692D",
"G. c #F5732E",
"H. c #E26434",
"J. c #E96833",
"K. c #E77635",
"L. c #EF7436",
"P. c #E67B35",
"I. c #EC7D36",
"U. c #F87B34",
"Y. c #F27738",
"T. c #C87844",
"R. c #B1843D",
"E. c #C38F3D",
"W. c #D6803D",
"Q. c #D8813F",
"!. c #DB8A38",
"~. c #F7892A",
"^. c #FA8E2D",
"/. c #EC8037",
"(. c #FA9432",
"). c #F5923A",
"_. c #E7A439",
"`. c #EFA63F",
"'. c #F4A83F",
"]. c #F6A33D",
"[. c #FBB23A",
"{. c #FCC43E",
"}. c #B7824D",
"|. c #BB9643",
" X c #CC8247",
".X c #D98041",
"XX c #C39A4B",
"oX c #DA9A47",
"OX c #EA9B4C",
"+X c #EEA646",
"@X c #E6AE40",
"#X c #E9AA40",
"$X c #E6A245",
"%X c #F4A744",
"&X c #EEBF4B",
"*X c #F2B04A",
/* pixels */
"                                                                                                    ",
"                                                                                                    ",
"                                                                                                    ",
"                                                                                                    ",
"                                                                                                    ",
"                                                            a                                       ",
"                                  x f x                 a ^ o.^                                     ",
"                                W ' @./ U               D +.J.i.T                                   ",
"                            a E | m.G.M.` W y           a J OXK.H                                   ",
"                            M ~ x.^.{.*X1.a             5 n <.3.T                                   ",
"                            R Y u.`.E.%.a   8 n n W U 8   @ 1 U c                                   ",
"                        m   M 5 2 l 1 n ^ ^ ( ( ^ ^ ~ Y f < + O                                     ",
"                        W   4 < # @ 2 ^ / ] :.,.^ Q ...XN.g ,                                       ",
"                        x       f / _ X.B.).`.A._ 9 7 R.$X) Q w                                     ",
"                              U $.k.c.a.I.0.4.j 7 4 X e 1.J H R x                                   ",
"                    F h       Y x.(.!.#.J * % &         n h.j.#.G z a                               ",
"                  F z.X.X     ^ I.#X=.7 1 % &           ; 6.^.D.p.A W                               ",
"                  F s.d X     _ C.%.; & %                 V &X~.G.+.Q       3 I h                   ",
"                    M         Y ! >                         |.(.G.o.U     > ) P.t.u                 ",
"                              m b +                         V ;.] ^ R     > =.+Xj.D                 ",
"                          a f   -                           + 9 E R Q       i  X-.                  ",
"                      n ~ X.F                               o F r.S 1         B                     ",
"                      W @.L.9.                              o G D.q.b                               ",
"                5     T $./._.V                         &   o *.).e.T                               ",
"              P d.-.2 2 X.m.P.s +                           + 7.].w.a                               ",
"            m o.G.+XC     @.,.a a >                       o 2 Z.H.]     *                           ",
"            x ..x.V.i     T : m ..A.XXZ                   # T u...p   + K >.f                       ",
"              M / Y z     m z f @.G.[.oXs #           . r 9 , q R     6 g.h.T                       ",
"                              b / $.c.:.( b > * X * t 8.Q...S R b     D v.$.f                       ",
"                                U H S Y ( ! E x + 5._.[.S.o.E b         S u                         ",
"                          x U         b ( ^ U 5 c f.F.D.p.D                                         ",
"                          R X.0         g ! ^ 2 f [ i.@.d                                           ",
"                          ' b.T.e           n                 , 8 a y                               ",
"                          @.l.Y.L                         > W 3.p./                                 ",
"                          ,.n.a.A                         8 ,.Y.g.Y                                 ",
"                          h o.H f L 9.}.Q z               z y.q./ x                                 ",
"                            N 9 W u.P.V.^ v                   c                                     ",
"                                  U ) M                                                             ",
"                                                                                                    ",
"                                                                                                    ",
"                                                                                                    ",
"                                                                                                    ",
"                                                                                                    ",
"                                                                                                    ",
"                                                                                                    ",
"                                                                                                    ",
"                                                                                                    ",
"                                                                                                    ",
"                                                                                                    ",
"                                                                                                    "
};
