/* XPM */
static char *_9c3957fde794da0cfa620fed9b5a9a4PO5rAA4bfNPEE8xw[] = {
/* columns rows colors chars-per-pixel */
"50 50 216 2 ",
"   c None",
".  c #2B0A1E",
"X  c #240A1C",
"o  c #340D1E",
"O  c #3E0D1D",
"+  c #3E121C",
"@  c #290C21",
"#  c #370B21",
"$  c #440F1C",
"%  c #48141B",
"&  c #701D1F",
"*  c #641D1C",
"=  c #78271F",
"-  c #440F20",
";  c #431121",
":  c #4B1322",
">  c #4E1A21",
",  c #511624",
"<  c #561B25",
"1  c #5B1A29",
"2  c #5A1724",
"3  c #671E24",
"4  c #641E2B",
"5  c #6C1E2B",
"6  c #6A1D26",
"7  c #701F2D",
"8  c #6D1F30",
"9  c #65212B",
"0  c #6C212E",
"q  c #74222E",
"w  c #792727",
"e  c #6D2333",
"r  c #732431",
"t  c #7B2434",
"y  c #7F2935",
"u  c #643936",
"i  c #7A3836",
"p  c #753520",
"a  c #76453F",
"s  c #6F5842",
"d  c #802B1C",
"f  c #892A28",
"g  c #9B2B2D",
"h  c #883929",
"j  c #923C2C",
"k  c #9B362C",
"l  c #832634",
"z  c #8D2633",
"x  c #842934",
"c  c #8B2835",
"v  c #842938",
"b  c #8E2939",
"n  c #8C2639",
"m  c #962734",
"M  c #992635",
"N  c #952934",
"B  c #9C2A33",
"V  c #932739",
"C  c #922A39",
"Z  c #9B2A39",
"A  c #9A263A",
"S  c #943234",
"D  c #963E35",
"F  c #A42C2C",
"G  c #AB2E2D",
"H  c #A5312D",
"J  c #AB332D",
"K  c #AA3D2D",
"L  c #B1322E",
"P  c #BC3B2E",
"I  c #B7372F",
"U  c #A32C32",
"Y  c #AA2E33",
"T  c #A53332",
"R  c #AD3432",
"E  c #B33632",
"W  c #BC3A32",
"Q  c #B73835",
"!  c #C93D2E",
"~  c #C43D2F",
"^  c #C23D31",
"/  c #CA3E32",
"(  c #C93F39",
")  c #D03E35",
"_  c #84413D",
"`  c #9E4736",
"'  c #8E4C29",
"]  c #BA472C",
"[  c #A84836",
"{  c #BA4634",
"}  c #AC5E3C",
"|  c #B95538",
" . c #99683F",
".. c #B66234",
"X. c #BC6935",
"o. c #A0773A",
"O. c #CC442E",
"+. c #C5432F",
"@. c #D4422C",
"#. c #DB4B2F",
"$. c #DC462F",
"%. c #DD512F",
"&. c #C34032",
"*. c #CC4232",
"=. c #C34D34",
"-. c #D44334",
";. c #DC4634",
":. c #D44932",
">. c #DC4A33",
",. c #D24438",
"<. c #D65637",
"1. c #C75831",
"2. c #E34B2E",
"3. c #EE4D2D",
"4. c #E24728",
"5. c #F34E2E",
"6. c #EE542F",
"7. c #E5582C",
"8. c #F6532E",
"9. c #FC522C",
"0. c #F45A2B",
"q. c #F95D2B",
"w. c #FA5627",
"e. c #E44C32",
"r. c #ED4F34",
"t. c #F24F32",
"y. c #E55132",
"u. c #ED5132",
"i. c #E75C31",
"p. c #E95934",
"a. c #F15132",
"s. c #FB5331",
"d. c #F35A31",
"f. c #FB5F30",
"g. c #DE612A",
"h. c #CD6B37",
"j. c #D66136",
"k. c #DB7733",
"l. c #C47037",
"z. c #FA642B",
"x. c #F9692A",
"c. c #F6662A",
"v. c #E77B2D",
"b. c #F8712D",
"n. c #F97C2B",
"m. c #F3782B",
"M. c #EB6B36",
"N. c #E97A32",
"B. c #F67632",
"V. c #E3622C",
"C. c #8E5C44",
"Z. c #8B634E",
"A. c #866A6C",
"S. c #C36540",
"D. c #C67944",
"F. c #AD843E",
"G. c #DE8134",
"H. c #D9853C",
"J. c #DB903B",
"K. c #C88237",
"L. c #F68A2D",
"P. c #F8942A",
"I. c #ED8533",
"U. c #E88C3B",
"Y. c #F48932",
"T. c #F78934",
"R. c #E89638",
"E. c #F59132",
"W. c #FB9A33",
"Q. c #F1933D",
"!. c #E88A2F",
"~. c #FBA72D",
"^. c #FCB52C",
"/. c #FCBB2E",
"(. c #ECA73A",
"). c #FCA533",
"_. c #F7AB35",
"`. c #FCAC35",
"'. c #F6A63B",
"]. c #FBB333",
"[. c #FCBA34",
"{. c #FDB13A",
"}. c #F8BA3B",
"|. c #E9B13B",
" X c #FAC52F",
".X c #FAC532",
"XX c #FCCB36",
"oX c #FCC739",
"OX c #FDCD3A",
"+X c #FDD33B",
"@X c #FDDA3C",
"#X c #FBD736",
"$X c #998D5C",
"%X c #A08F5B",
"&X c #A2915D",
"*X c #C88847",
"=X c #CF9943",
"-X c #C88150",
";X c #C79F56",
":X c #E99A49",
">X c #CBAA59",
",X c #F5A141",
"<X c #E0A545",
"1X c #FADA47",
"2X c #FBD954",
"3X c #F8CA47",
"4X c #FADB68",
"5X c #F9E166",
"6X c #FBE274",
"7X c #F8E684",
"8X c #F9EA9E",
"9X c #FAE897",
"0X c #FAECA5",
"qX c #F9ECAE",
"wX c #FAEEB2",
"eX c #FDF5D2",
/* pixels */
"                                                                                                    ",
"                                                                                                    ",
"                                                                                                    ",
"                                                                                                    ",
"                                                                                                    ",
"                                                i                                                   ",
"                                                `                                                   ",
"                                                {                                                   ",
"                                                ..                                                  ",
"                                                *X                                                  ",
"                                                H.'                                                 ",
"                                                M.p @ + < 9 e 9                                     ",
"                                < ; @ @ X       p.f t n C C N N v                   A.              ",
"              a             e l b v 4 . . @ X % e.R A Q ^ R N N m y             C.u                 ",
"                >Xo.      r V M M M C < . o o + &.J ;.s.9.a.L N M v           -X .                  ",
"                  =Xh.  3 C B ~ O.@.^ l o 9 y % T I r.9.9.9.*.M M v       ] <.`                     ",
"                    1.u.O.G >.9.9.9.>.g T E I f f U h.I.x.9.^ M m 1 $ [ 2.%.f                       ",
"                      :.s.5.9.9.9.2.L O.8.z.f.t.W E k.}.Q.$.G N f f -.9.2.=                         ",
"                    X * ;.9.9.9.4.! 2.5.q.I.U.p.5.5.0.I.R.J B / 2.5.8.;.w                           ",
"                    , z L 5.9.9.8.5.w.n.E.| T :.9.9.9.9.{ B ~ c.f.8.>.*                             ",
"                  o t g e.9.q.z.9.9.E.{.K.[ ;.0.q.9.9.9.r.3.9.x.b.;.f @                             ",
"                  o y B u.w.W.Y.9.x._.X.F K v.).].P.x.9.9.9.9.9.-.& O + : :                         ",
"                    q m / V.].G.e.M.k.u.v.(.}.XX#XXX~.n.b.z.9.s.! 6 t V Z b t ,                     ",
"                    % l B F *X[ U E e.L.^./..X+X@X#XoXoX`.P.w.) e.F Q Y A Z B f #                   ",
"                    o $ 1 4 , l N Y 6.].+X+X X3X1X@X/.+X/.^.b.! ) -.9.5.{ } =X&X<                   ",
"                  : t z g l 0 l N G 7.[.@X@X4X0X8X5X2X XoX/.L.N.{ j.9.9.p.| ` S 9                   ",
"                $ l E e.d.p.,.U [ B #._.@X1X7X7X0XwX8X#X@XXX~.W.g.'.x.9.a.G N C 9                   ",
"                4 M e.9.T.b.s.>.:X` J R.1X7XqX2X6XeX8X1X@XXX^.).I.[.n.9.a.T M C                     ",
"                q F t.x.{.E.9.0.'.D.N |.@X7X0X6XqX0X4X@X@X.X^.~.W.}.m.>.,.B N v                     ",
"                l Z 2.z.]._.0.-...X.g |.@X1X5X9XqX4X XXXoX/.^.).v.J.{ B m N C r                     ",
"                r V / 8.n.:X] B 6 T >.E.+X+X2X6X6X+X X+X^.^.].L.P h C N V n r                       ",
"                  y Z / O.G l 2 = ;.s.x.).[.+X1X1X@X@XXX^.[.G.W c O + , <                           ",
"                    5 t t 8 , k 2.6./ 2.x.L.P.[.@X+XXX/.^.`.1.g z : .                               ",
"                            K %.@.G F e.q.8.%.!.'._.~.^._.n.9.^ l.w #                               ",
"                          =.{ h N m ! 9.T.R.<XJ.l.=.6.x.x.9.9.T.W.[ q                               ",
"                      j | j s Z.Z M e.9.z.).[.R...g E / L O.Y.}.P.O.z                               ",
"                    C.`   $X$Xu N A >.9.9.0.i.J c z C z z { Q.T.z.t.E                               ",
"                  u     &X&X    v M E t.5.) W B 5 : , : 4 Q u.s.3.8.y.d                             ",
"                                e N B I -.Q N b <       - y U R g R %.j.h                           ",
"                                  v N M A A b e                       ..K.                          ",
"                                    r b b l 9                           F.;X                        ",
"                                                                            Z.                      ",
"                                                                              A.                    ",
"                                                                                                    ",
"                                                                                                    ",
"                                                                                                    ",
"                                                                                                    ",
"                                                                                                    ",
"                                                                                                    ",
"                                                                                                    "
};
